<svg width="192" height="192" viewBox="0 0 192 192" fill="none" xmlns="http://www.w3.org/2000/svg">
  <!-- Outer teal circle with gradient edge -->
  <circle cx="96" cy="96" r="88" fill="#14b8a6"/>

  <!-- Inner white circle -->
  <circle cx="96" cy="96" r="76" fill="white"/>

  <!-- Dog illustration - sitting, facing right -->
  <g transform="translate(70, 52)" stroke="#14b8a6" stroke-width="2.2" fill="none" stroke-linecap="round" stroke-linejoin="round">
    <!-- Head profile facing right -->
    <path d="M 28 8 L 28 4 L 32 2 L 40 2 L 44 4 L 48 8 L 48 16 L 46 20 L 42 22" />

    <!-- Ear (pointing up) -->
    <path d="M 32 2 L 30 -2 L 32 4" />

    <!-- Snout/nose area -->
    <path d="M 46 20 L 50 20 L 52 18" />
    <circle cx="48" cy="18" r="1.5" fill="#14b8a6" />

    <!-- Eye -->
    <circle cx="40" cy="10" r="1.8" fill="#14b8a6" />

    <!-- Neck connecting to body -->
    <path d="M 38 22 L 36 26" />

    <!-- Body (sitting position) -->
    <ellipse cx="28" cy="40" rx="14" ry="18" />

    <!-- Front leg (sitting) -->
    <path d="M 32 52 L 32 62 L 34 64" />
    <line x1="30" y1="64" x2="36" y2="64" stroke-width="2.5" stroke-linecap="round" />

    <!-- Back leg (sitting, bent) -->
    <path d="M 18 48 L 14 54 L 14 62 L 16 64" />
    <line x1="14" y1="64" x2="18" y2="64" stroke-width="2.5" stroke-linecap="round" />

    <!-- Tail (curved up and around) -->
    <path d="M 16 36 Q 10 32 8 36 Q 6 40 8 44 Q 10 46 14 44" stroke-width="2" />

    <!-- Tech circuit nodes on body -->
    <circle cx="26" cy="38" r="1.8" fill="#14b8a6" />
    <circle cx="30" cy="44" r="1.8" fill="#14b8a6" />
    <circle cx="24" cy="46" r="1.8" fill="#14b8a6" />

    <!-- Connection lines between nodes -->
    <line x1="26" y1="38" x2="30" y2="44" stroke-width="1.2" />
    <line x1="30" y1="44" x2="24" y2="46" stroke-width="1.2" />
  </g>

  <!-- Swoosh accent from bottom right of circle -->
  <path d="M 168 142 Q 178 148 186 156" stroke="#14b8a6" stroke-width="6" fill="none" stroke-linecap="round" opacity="0.9"/>
</svg>
